# WaveFront *.obj file (generated by CINEMA 4D)

mtllib ./House2.mtl

v -35 -10 10
v -35 15 10
v -15 -10 10
v -15 15 10
v -15 -10 -10
v -15 15 -10
v -35 -10 -10
v -35 15 -10
v -28.75 11 10
v -28.75 5 10
v -31.25 11 10
v -31.25 5 10
v -24.09403038024902 11 10
v -24.09403038024902 5 10
v -26.59403038024902 11 10
v -26.59403038024902 5 10
v -19.09403038024902 11 10
v -19.09403038024902 5 10
v -21.59403038024902 11 10
v -21.59403038024902 5 10
v -28.75 2 10
v -28.75 -4 10
v -31.25 2 10
v -31.25 -4 10
v -24.09403038024902 2 10
v -24.09403038024902 -4 10
v -26.59403038024902 2 10
v -26.59403038024902 -4 10
v -19.09403038024902 2 10
v -19.09403038024902 -4 10
v -21.59403038024902 2 10
v -21.59403038024902 -4 10
# 32 vertices

vn 0 0 1
vn 0 0 0
vn 1 0 0
vn 0 0 -1
vn -1 0 0
vn 0 1 0
vn 0 -1 0
# 7 normals

vt 0.42029851675034 0.8400000333786 0
vt 0.42029851675034 0.60000002384186 0
vt 0.3125 0.60000002384186 0
vt 0.3125 0.8400000333786 0
vt 0.67029851675034 0.24000000953674 0
vt 0.54529851675034 0.24000000953674 0
vt 0.54529851675034 0.48000001907349 0
vt 0.67029851675034 0.48000001907349 0
vt 0.42029851675034 0.48000001907349 0
vt 0.42029851675034 0.24000000953674 0
vt 0.3125 0.24000000953674 0
vt 0.3125 0.48000001907349 0
vt 0.1875 0.48000001907349 0
vt 0.1875 0.60000002384186 0
vt 0 1 0
vt 0.1875 0.24000000953674 0
vt 0 0 0
vt 1 0 0
vt 0.54529851675034 0.60000002384186 0
vt 0.67029851675034 0.60000002384186 0
vt 0.79529851675034 0.60000002384186 0
vt 0.1875 0.8400000333786 0
vt 0.67029851675034 0.8400000333786 0
vt 0.54529851675034 0.8400000333786 0
vt 0.79529851675034 0.48000001907349 0
vt 0.79529851675034 0.8400000333786 0
vt 1 1 0
vt 0.79529851675034 0.24000000953674 0
# 28 texture coordinates

o Cube.2
usemtl Mat
f 9/4/1 10/3/1 16/2/1 15/1/1
f 31/8/1 25/7/1 26/6/1 32/5/1
f 21/12/1 22/11/1 28/10/1 27/9/1
f 21/12/1 12/14/1 23/13/1
f 1/17/1 24/16/1 23/13/1
f 3/18/1 26/6/1 28/10/1
f 18/21/2 20/20/2 14/19/2
f 2/15/1 1/17/1 12/14/1 11/22/1
f 27/9/1 12/14/1 21/12/1
f 22/11/1 24/16/1 1/17/1 3/18/1
f 13/24/1 14/19/1 20/20/1 19/23/1
f 1/17/1 23/13/1 12/14/1
f 3/18/1 28/10/1 22/11/1
f 31/8/1 29/25/1 14/19/1 16/2/1
f 25/7/1 12/14/1 27/9/1
f 32/5/1 26/6/1 3/18/1
f 4/27/1 19/23/1 17/26/1
f 2/15/1 9/4/1 15/1/1
f 31/8/1 10/3/1 12/14/1 25/7/1
f 2/15/1 11/22/1 9/4/1
f 30/28/1 32/5/1 3/18/1
f 2/15/1 15/1/1 13/24/1
f 4/27/1 2/15/1 13/24/1 19/23/1
f 29/25/1 30/28/1 3/18/1 4/27/1
f 16/2/1 10/3/1 31/8/1
f 4/27/1 17/26/1 18/21/1
f 18/21/1 14/19/1 29/25/1
f 18/21/1 29/25/1 4/27/1
f 5/18/3 6/27/3 4/15/3 3/17/3
f 7/18/4 8/27/4 6/15/4 5/17/4
f 1/18/5 2/27/5 8/15/5 7/17/5
f 4/18/6 6/27/6 8/15/6 2/17/6
f 5/18/7 3/27/7 1/15/7 7/17/7

v 0 -10 10
v 0 15 10
v 40 -10 10
v 40 15 10
v 40 -10 -10
v 40 15 -10
v 0 -10 -10
v 0 15 -10
v 23.75 -1 10
v 23.75 -7 10
v 21.25 -1 10
v 21.25 -7 10
v 28.40596961975098 -1 10
v 28.40596961975098 -7 10
v 25.90596961975098 -1 10
v 25.90596961975098 -7 10
v 33.40597152709961 -1 10
v 33.40597152709961 -7 10
v 30.90596961975098 -1 10
v 30.90596961975098 -7 10
v 8.75 -1 10
v 8.75 -7 10
v 6.25 -1 10
v 6.25 -7 10
v 13.40597057342529 -1 10
v 13.40597057342529 -7 10
v 10.90597057342529 -1 10
v 10.90597057342529 -7 10
v 18.40596961975098 -1 10
v 18.40596961975098 -7 10
v 15.90597057342529 -1 10
v 15.90597057342529 -7 10
v 23.75 8 10
v 23.75 2 10
v 21.25 8 10
v 21.25 2 10
v 28.40596961975098 8 10
v 28.40596961975098 2 10
v 25.90596961975098 8 10
v 25.90596961975098 2 10
v 33.40597152709961 8 10
v 33.40597152709961 2 10
v 30.90596961975098 8 10
v 30.90596961975098 2 10
v 8.75 8 10
v 8.75 2 10
v 6.25 8 10
v 6.25 2 10
v 13.40597057342529 8 10
v 13.40597057342529 2 10
v 10.90597057342529 8 10
v 10.90597057342529 2 10
v 18.40596961975098 8 10
v 18.40596961975098 2 10
v 15.90597057342529 8 10
v 15.90597057342529 2 10
# 56 vertices

# 0 normal

vt 0.77264928817749 0.48000001907349 0
vt 0.71014928817749 0.48000001907349 0
vt 0.71014928817749 0.72000002861023 0
vt 0.77264928817749 0.72000002861023 0
vt 0.53125 0.72000002861023 0
vt 0.53125 0.48000001907349 0
vt 0.46014925837517 0.48000001907349 0
vt 0.46014925837517 0.72000002861023 0
vt 0.27264925837517 0.72000002861023 0
vt 0.27264925837517 0.48000001907349 0
vt 0.21875 0.48000001907349 0
vt 0.21875 0.72000002861023 0
vt 0.64764928817749 0.12000000476837 0
vt 0.59375 0.12000000476837 0
vt 0.59375 0.36000001430511 0
vt 0.64764928817749 0.36000001430511 0
vt 0.77264928817749 0.36000001430511 0
vt 0.77264928817749 0.12000000476837 0
vt 0.71014928817749 0.12000000476837 0
vt 0.71014928817749 0.36000001430511 0
vt 0.53125 0.36000001430511 0
vt 0.53125 0.12000000476837 0
vt 0.46014925837517 0.12000000476837 0
vt 0.46014925837517 0.36000001430511 0
vt 0.15625 0.36000001430511 0
vt 0.15625 0.48000001907349 0
vt 0.27264925837517 0.36000001430511 0
vt 0.27264925837517 0.12000000476837 0
vt 0.21875 0.12000000476837 0
vt 0.21875 0.36000001430511 0
vt 0.15625 0.12000000476837 0
vt 0.33514925837517 0.48000001907349 0
vt 0.39764925837517 0.48000001907349 0
vt 0.33514925837517 0.12000000476837 0
vt 0.39764925837517 0.12000000476837 0
vt 0.59375 0.48000001907349 0
vt 0.64764928817749 0.48000001907349 0
vt 0.39764925837517 0.72000002861023 0
vt 0.33514925837517 0.72000002861023 0
vt 0.39764925837517 0.36000001430511 0
vt 0.33514925837517 0.36000001430511 0
vt 0.64764928817749 0.72000002861023 0
vt 0.59375 0.72000002861023 0
vt 0.83514928817749 0.72000002861023 0
vt 0.15625 0.72000002861023 0
vt 0.83514928817749 0.12000000476837 0
vt 0.83514928817749 0.36000001430511 0
vt 0.83514928817749 0.48000001907349 0
# 48 texture coordinates

o Cube.1
usemtl Mat
f 75/32/1 69/31/1 70/30/1 76/29/1
f 85/36/1 86/35/1 68/34/1 67/33/1
f 77/40/1 78/39/1 84/38/1 83/37/1
f 47/44/1 41/43/1 42/42/1 48/41/1
f 45/48/1 46/47/1 52/46/1 51/45/1
f 61/52/1 62/51/1 44/50/1 43/49/1
f 78/39/1 80/54/1 55/53/1
f 53/58/1 54/57/1 60/56/1 59/55/1
f 34/15/1 33/17/1 56/59/1 55/53/1
f 35/18/1 54/57/1 56/59/1 33/17/1
f 52/46/2 46/47/2 48/41/2
f 86/35/2 88/61/2 82/60/2
f 35/18/1 58/62/1 60/56/1
f 48/41/2 42/42/2 44/50/2
f 44/50/2 62/51/2 64/63/2
f 70/30/2 72/65/2 66/64/2
f 84/38/1 78/39/1 55/53/1
f 81/67/1 82/60/1 88/61/1 87/66/1
f 57/69/1 58/62/1 64/63/1 63/68/1
f 65/71/1 66/64/1 72/65/1 71/70/1
f 52/46/2 48/41/2 44/50/2
f 35/18/1 60/56/1 54/57/1
f 82/60/1 84/38/1 55/53/1
f 34/15/1 55/53/1 80/54/1
f 64/63/1 58/62/1 35/18/1
f 66/64/1 57/69/1 63/68/1
f 34/15/1 81/67/1 87/66/1
f 67/33/2 65/71/2 71/70/2
f 87/66/2 85/36/2 67/33/2
f 63/68/2 61/52/2 43/49/2
f 35/18/1 44/50/1 64/63/1
f 41/43/2 47/44/2 45/48/2
f 45/48/1 76/29/1 70/30/1
f 36/27/1 75/32/1 73/72/1
f 34/15/1 80/54/1 79/73/1
f 86/35/1 82/60/1 55/53/1
f 52/46/1 44/50/1 35/18/1
f 67/33/2 71/70/2 69/31/2
f 34/15/1 83/37/1 81/67/1
f 43/49/2 41/43/2 45/48/2
f 66/64/1 59/55/1 57/69/1
f 34/15/1 79/73/1 77/40/1
f 50/74/1 52/46/1 35/18/1
f 68/34/1 86/35/1 55/53/1
f 34/15/1 67/33/1 69/31/1
f 70/30/1 66/64/1 43/49/1 45/48/1
f 49/75/1 50/74/1 35/18/1 36/27/1
f 34/15/1 77/40/1 83/37/1
f 34/15/1 87/66/1 67/33/1
f 66/64/1 68/34/1 55/53/1 53/58/1
f 66/64/1 53/58/1 59/55/1
f 66/64/1 63/68/1 43/49/1
f 75/32/1 36/27/1 34/15/1 69/31/1
f 36/27/1 73/72/1 74/76/1
f 74/76/1 76/29/1 45/48/1 51/45/1
f 49/75/1 36/27/1 74/76/1
f 74/76/1 51/45/1 49/75/1
f 37/18/3 38/27/3 36/15/3 35/17/3
f 39/18/4 40/27/4 38/15/4 37/17/4
f 33/18/5 34/27/5 40/15/5 39/17/5
f 36/18/6 38/27/6 40/15/6 34/17/6
f 37/18/7 35/27/7 33/15/7 39/17/7

v -15 10 10
v 0 10 10
v 0 10 -10
v -15 10 -10
v -8.75 -1 10
v -8.75 -7 10
v -11.25 -1 10
v -11.25 -7 10
v -4.09402942657471 -1 10
v -4.09402942657471 -7 10
v -6.59402942657471 -1 10
v -6.59402942657471 -7 10
v -8.75 7 10
v -8.75 1 10
v -11.25 7 10
v -11.25 1 10
v -4.09402942657471 7 10
v -4.09402942657471 1 10
v -6.59402942657471 7 10
v -6.59402942657471 1 10
# 20 vertices

# 0 normal

vt 0.25 0.45000004768372 0
vt 0.25 0.55000001192093 0
vt 0.41666665673256 0.55000001192093 0
vt 0.560398042202 0.45000004768372 0
vt 0.560398042202 0.14999997615814 0
vt 0.41666665673256 0.14999997615814 0
vt 0.560398042202 0.55000001192093 0
vt 0.72706472873688 0.55000001192093 0
vt 0.72706472873688 0.45000004768372 0
vt 0.25 0.14999997615814 0
vt 0.41666665673256 0.45000004768372 0
vt 0.72706472873688 0.14999997615814 0
vt 0.25 0.85000002384186 0
vt 0.41666665673256 0.85000002384186 0
vt 0.560398042202 0.85000002384186 0
vt 0.72706472873688 0.85000002384186 0
# 16 texture coordinates

o Cube
usemtl Mat
f 102/79/1 104/78/1 95/77/1
f 94/82/1 100/81/1 99/80/1
f 97/85/1 106/84/1 108/83/1 99/80/1
f 3/17/1 96/86/1 95/77/1
f 33/18/1 100/81/1 94/82/1
f 3/17/1 95/77/1 104/78/1
f 93/87/1 94/82/1 99/80/1 108/83/1
f 94/82/1 96/86/1 3/17/1 33/18/1
f 98/88/1 100/81/1 33/18/1
f 93/87/1 108/83/1 102/79/1 95/77/1
f 90/27/1 106/84/1 97/85/1
f 97/85/1 98/88/1 33/18/1 90/27/1
f 103/89/1 89/15/1 3/17/1 104/78/1
f 101/90/1 90/27/1 89/15/1 103/89/1
f 101/90/1 102/79/1 108/83/1 107/91/1
f 105/92/1 106/84/1 90/27/1
f 107/91/1 105/92/1 90/27/1
f 107/91/1 90/27/1 101/90/1
f 39/18/3 91/27/3 90/15/3 33/17/3
f 5/18/4 92/27/4 91/15/4 39/17/4
f 3/18/5 89/27/5 92/15/5 5/17/5
f 90/18/6 91/27/6 92/15/6 89/17/6
f 39/18/7 33/27/7 3/15/7 5/17/7

v -28.75 5 9.5
v -28.75 11 9.5
v -31.25 5 9.5
v -31.25 11 9.5
# 4 vertices

# 0 normal

vt 0.75 1 0
vt 0.75 0 0
vt 0.25 0 0
vt 0.25 1 0
vt 0 0.75 0
vt 1 0.75 0
vt 1 0.25 0
vt 0 0.25 0
# 8 texture coordinates

o Cube.1_1
usemtl Mat.2
f 109/18/5 10/94/5 9/93/5 110/27/5
f 112/27/1 111/18/1 109/17/1 110/15/1
f 112/15/3 11/96/3 12/95/3 111/17/3
f 110/27/7 9/98/7 11/97/7 112/15/7
f 111/17/6 12/100/6 10/99/6 109/18/6

v 23.75 -7 9.5
v 23.75 -1 9.5
v 21.25 -7 9.5
v 21.25 -1 9.5
# 4 vertices

# 0 normal

# 0 texture coordinate

o Cube.3
usemtl Mat.2
f 113/18/5 42/94/5 41/93/5 114/27/5
f 116/27/1 115/18/1 113/17/1 114/15/1
f 116/15/3 43/96/3 44/95/3 115/17/3
f 114/27/7 41/98/7 43/97/7 116/15/7
f 115/17/6 44/100/6 42/99/6 113/18/6

v 28.40596961975098 -7 9.5
v 28.40596961975098 -1 9.5
v 25.90596961975098 -7 9.5
v 25.90596961975098 -1 9.5
# 4 vertices

# 0 normal

# 0 texture coordinate

o Cube.1_2
usemtl Mat.2
f 117/18/5 46/94/5 45/93/5 118/27/5
f 120/27/1 119/18/1 117/17/1 118/15/1
f 120/15/3 47/96/3 48/95/3 119/17/3
f 118/27/7 45/98/7 47/97/7 120/15/7
f 119/17/6 48/100/6 46/99/6 117/18/6

v 33.40597152709961 -7 9.5
v 33.40597152709961 -1 9.5
v 30.90596961975098 -7 9.5
v 30.90596961975098 -1 9.5
# 4 vertices

# 0 normal

# 0 texture coordinate

o Cube.1_3
usemtl Mat.2
f 121/18/5 50/94/5 49/93/5 122/27/5
f 124/27/1 123/18/1 121/17/1 122/15/1
f 124/15/3 51/96/3 52/95/3 123/17/3
f 122/27/7 49/98/7 51/97/7 124/15/7
f 123/17/6 52/100/6 50/99/6 121/18/6

v 8.75 -7 9.5
v 8.75 -1 9.5
v 6.25 -7 9.5
v 6.25 -1 9.5
# 4 vertices

# 0 normal

# 0 texture coordinate

o Cube.2_1
usemtl Mat.2
f 125/18/5 54/94/5 53/93/5 126/27/5
f 128/27/1 127/18/1 125/17/1 126/15/1
f 128/15/3 55/96/3 56/95/3 127/17/3
f 126/27/7 53/98/7 55/97/7 128/15/7
f 127/17/6 56/100/6 54/99/6 125/18/6

v 13.40597057342529 -7 9.5
v 13.40597057342529 -1 9.5
v 10.90597057342529 -7 9.5
v 10.90597057342529 -1 9.5
# 4 vertices

# 0 normal

# 0 texture coordinate

o Cube.1_4
usemtl Mat.2
f 129/18/5 58/94/5 57/93/5 130/27/5
f 132/27/1 131/18/1 129/17/1 130/15/1
f 132/15/3 59/96/3 60/95/3 131/17/3
f 130/27/7 57/98/7 59/97/7 132/15/7
f 131/17/6 60/100/6 58/99/6 129/18/6

v 18.40596961975098 -7 9.5
v 18.40596961975098 -1 9.5
v 15.90597057342529 -7 9.5
v 15.90597057342529 -1 9.5
# 4 vertices

# 0 normal

# 0 texture coordinate

o Cube.1_5
usemtl Mat.2
f 133/18/5 62/94/5 61/93/5 134/27/5
f 136/27/1 135/18/1 133/17/1 134/15/1
f 136/15/3 63/96/3 64/95/3 135/17/3
f 134/27/7 61/98/7 63/97/7 136/15/7
f 135/17/6 64/100/6 62/99/6 133/18/6

v 23.75 2 9.5
v 23.75 8 9.5
v 21.25 2 9.5
v 21.25 8 9.5
# 4 vertices

# 0 normal

# 0 texture coordinate

o Cube_1
usemtl Mat.2
f 137/18/5 66/94/5 65/93/5 138/27/5
f 140/27/1 139/18/1 137/17/1 138/15/1
f 140/15/3 67/96/3 68/95/3 139/17/3
f 138/27/7 65/98/7 67/97/7 140/15/7
f 139/17/6 68/100/6 66/99/6 137/18/6

v 28.40596961975098 2 9.5
v 28.40596961975098 8 9.5
v 25.90596961975098 2 9.5
v 25.90596961975098 8 9.5
# 4 vertices

# 0 normal

# 0 texture coordinate

o Cube.1_6
usemtl Mat.2
f 141/18/5 70/94/5 69/93/5 142/27/5
f 144/27/1 143/18/1 141/17/1 142/15/1
f 144/15/3 71/96/3 72/95/3 143/17/3
f 142/27/7 69/98/7 71/97/7 144/15/7
f 143/17/6 72/100/6 70/99/6 141/18/6

v 33.40597152709961 2 9.5
v 33.40597152709961 8 9.5
v 30.90596961975098 2 9.5
v 30.90596961975098 8 9.5
# 4 vertices

# 0 normal

# 0 texture coordinate

o Cube.1_7
usemtl Mat.2
f 145/18/5 74/94/5 73/93/5 146/27/5
f 148/27/1 147/18/1 145/17/1 146/15/1
f 148/15/3 75/96/3 76/95/3 147/17/3
f 146/27/7 73/98/7 75/97/7 148/15/7
f 147/17/6 76/100/6 74/99/6 145/18/6

v 8.75 2 9.5
v 8.75 8 9.5
v 6.25 2 9.5
v 6.25 8 9.5
# 4 vertices

# 0 normal

# 0 texture coordinate

o Cube.1_8
usemtl Mat.2
f 149/18/5 78/94/5 77/93/5 150/27/5
f 152/27/1 151/18/1 149/17/1 150/15/1
f 152/15/3 79/96/3 80/95/3 151/17/3
f 150/27/7 77/98/7 79/97/7 152/15/7
f 151/17/6 80/100/6 78/99/6 149/18/6

v 13.40597057342529 2 9.5
v 13.40597057342529 8 9.5
v 10.90597057342529 2 9.5
v 10.90597057342529 8 9.5
# 4 vertices

# 0 normal

# 0 texture coordinate

o Cube.1_9
usemtl Mat.2
f 153/18/5 82/94/5 81/93/5 154/27/5
f 156/27/1 155/18/1 153/17/1 154/15/1
f 156/15/3 83/96/3 84/95/3 155/17/3
f 154/27/7 81/98/7 83/97/7 156/15/7
f 155/17/6 84/100/6 82/99/6 153/18/6

v 18.40596961975098 2 9.5
v 18.40596961975098 8 9.5
v 15.90597057342529 2 9.5
v 15.90597057342529 8 9.5
# 4 vertices

# 0 normal

# 0 texture coordinate

o Cube.1_10
usemtl Mat.2
f 157/18/5 86/94/5 85/93/5 158/27/5
f 160/27/1 159/18/1 157/17/1 158/15/1
f 160/15/3 87/96/3 88/95/3 159/17/3
f 158/27/7 85/98/7 87/97/7 160/15/7
f 159/17/6 88/100/6 86/99/6 157/18/6

v -8.75 -7 9.5
v -8.75 -1 9.5
v -11.25 -7 9.5
v -11.25 -1 9.5
# 4 vertices

# 0 normal

# 0 texture coordinate

o Cube_2
usemtl Mat.2
f 161/18/5 94/94/5 93/93/5 162/27/5
f 164/27/1 163/18/1 161/17/1 162/15/1
f 164/15/3 95/96/3 96/95/3 163/17/3
f 162/27/7 93/98/7 95/97/7 164/15/7
f 163/17/6 96/100/6 94/99/6 161/18/6

v -4.09402942657471 -7 9.5
v -4.09402942657471 -1 9.5
v -6.59402942657471 -7 9.5
v -6.59402942657471 -1 9.5
# 4 vertices

# 0 normal

# 0 texture coordinate

o Cube.1_11
usemtl Mat.2
f 165/18/5 98/94/5 97/93/5 166/27/5
f 168/27/1 167/18/1 165/17/1 166/15/1
f 168/15/3 99/96/3 100/95/3 167/17/3
f 166/27/7 97/98/7 99/97/7 168/15/7
f 167/17/6 100/100/6 98/99/6 165/18/6

v -8.75 1 9.5
v -8.75 7 9.5
v -11.25 1 9.5
v -11.25 7 9.5
# 4 vertices

# 0 normal

# 0 texture coordinate

o Cube.1_12
usemtl Mat.2
f 169/18/5 102/94/5 101/93/5 170/27/5
f 172/27/1 171/18/1 169/17/1 170/15/1
f 172/15/3 103/96/3 104/95/3 171/17/3
f 170/27/7 101/98/7 103/97/7 172/15/7
f 171/17/6 104/100/6 102/99/6 169/18/6

v -4.09402942657471 1 9.5
v -4.09402942657471 7 9.5
v -6.59402942657471 1 9.5
v -6.59402942657471 7 9.5
# 4 vertices

# 0 normal

# 0 texture coordinate

o Cube.1_13
usemtl Mat.2
f 173/18/5 106/94/5 105/93/5 174/27/5
f 176/27/1 175/18/1 173/17/1 174/15/1
f 176/15/3 107/96/3 108/95/3 175/17/3
f 174/27/7 105/98/7 107/97/7 176/15/7
f 175/17/6 108/100/6 106/99/6 173/18/6

v -24.09403038024902 5 9.5
v -24.09403038024902 11 9.5
v -26.59403038024902 5 9.5
v -26.59403038024902 11 9.5
# 4 vertices

# 0 normal

# 0 texture coordinate

o Cube.1_14
usemtl Mat.2
f 177/18/5 14/94/5 13/93/5 178/27/5
f 180/27/1 179/18/1 177/17/1 178/15/1
f 180/15/3 15/96/3 16/95/3 179/17/3
f 178/27/7 13/98/7 15/97/7 180/15/7
f 179/17/6 16/100/6 14/99/6 177/18/6

v -19.09403038024902 5 9.5
v -19.09403038024902 11 9.5
v -21.59403038024902 5 9.5
v -21.59403038024902 11 9.5
# 4 vertices

# 0 normal

# 0 texture coordinate

o Cube.1_15
usemtl Mat.2
f 181/18/5 18/94/5 17/93/5 182/27/5
f 184/27/1 183/18/1 181/17/1 182/15/1
f 184/15/3 19/96/3 20/95/3 183/17/3
f 182/27/7 17/98/7 19/97/7 184/15/7
f 183/17/6 20/100/6 18/99/6 181/18/6

v -28.75 -4 9.5
v -28.75 2 9.5
v -31.25 -4 9.5
v -31.25 2 9.5
# 4 vertices

# 0 normal

# 0 texture coordinate

o Cube.1_16
usemtl Mat.2
f 185/18/5 22/94/5 21/93/5 186/27/5
f 188/27/1 187/18/1 185/17/1 186/15/1
f 188/15/3 23/96/3 24/95/3 187/17/3
f 186/27/7 21/98/7 23/97/7 188/15/7
f 187/17/6 24/100/6 22/99/6 185/18/6

v -24.09403038024902 -4 9.5
v -24.09403038024902 2 9.5
v -26.59403038024902 -4 9.5
v -26.59403038024902 2 9.5
# 4 vertices

# 0 normal

# 0 texture coordinate

o Cube.1_17
usemtl Mat.2
f 189/18/5 26/94/5 25/93/5 190/27/5
f 192/27/1 191/18/1 189/17/1 190/15/1
f 192/15/3 27/96/3 28/95/3 191/17/3
f 190/27/7 25/98/7 27/97/7 192/15/7
f 191/17/6 28/100/6 26/99/6 189/18/6

v -19.09403038024902 -4 9.5
v -19.09403038024902 2 9.5
v -21.59403038024902 -4 9.5
v -21.59403038024902 2 9.5
# 4 vertices

# 0 normal

# 0 texture coordinate

o Cube.1_18
usemtl Mat.2
f 193/18/5 30/94/5 29/93/5 194/27/5
f 196/27/1 195/18/1 193/17/1 194/15/1
f 196/15/3 31/96/3 32/95/3 195/17/3
f 194/27/7 29/98/7 31/97/7 196/15/7
f 195/17/6 32/100/6 30/99/6 193/18/6

