# WaveFront *.obj file (generated by CINEMA 4D)

mtllib ./House1.mtl

v -35 15 10
v -35 25 0
v -15 15 10
v -15 25 0
v -15 15 -10
v -35 15 -10
# 6 vertices

vn 0 0.70710676908493 0.70710676908493
vn 1 0 0
vn 0 0.70710676908493 -0.70710676908493
vn -1 0 0
vn 0 0 0
vn 0 -1 0
# 6 normals

vt 0 0 0
vt 0 1 0
vt 1 1 0
vt 1 0 0
# 4 texture coordinates

o Cube.5
usemtl default
f 3/4/1 4/3/1 2/2/1 1/1/1
f 5/4/2 4/3/2 4/2/2 3/1/2
f 6/4/3 2/3/3 4/2/3 5/1/3
f 1/4/4 2/3/4 2/2/4 6/1/4
f 4/3/5 2/2/5 2/1/5
f 5/4/6 3/3/6 1/2/6 6/1/6

v 0 15 10
v 0 25 0
v 40 15 10
v 40 25 0
v 40 15 -10
v 0 15 -10
# 6 vertices

# 0 normal

# 0 texture coordinate

o Cube.4
usemtl default
f 9/4/1 10/3/1 8/2/1 7/1/1
f 11/4/2 10/3/2 10/2/2 9/1/2
f 12/4/3 8/3/3 10/2/3 11/1/3
f 7/4/4 8/3/4 8/2/4 12/1/4
f 10/3/5 8/2/5 8/1/5
f 11/4/6 9/3/6 7/2/6 12/1/6

v -15 10 10
v -15 20 0
v 0 10 10
v 0 20 0
v 0 10 -10
v -15 10 -10
# 6 vertices

# 0 normal

# 0 texture coordinate

o Cube.3
usemtl default
f 15/4/1 16/3/1 14/2/1 13/1/1
f 17/4/2 16/3/2 16/2/2 15/1/2
f 18/4/3 14/3/3 16/2/3 17/1/3
f 13/4/4 14/3/4 14/2/4 18/1/4
f 16/3/5 14/2/5 14/1/5
f 17/4/6 15/3/6 13/2/6 18/1/6

